<svg viewBox="0 0 720 330" role="img" aria-label="Behavioural change and self reported change plotted against steering strength."><line x1="62" y1="284.0" x2="696" y2="284.0" stroke="var(--rule)" stroke-width="1"/><line x1="62" y1="221.4" x2="696" y2="221.4" stroke="var(--rule)" stroke-width="1"/><line x1="62" y1="158.8" x2="696" y2="158.8" stroke="var(--rule)" stroke-width="1"/><line x1="62" y1="96.2" x2="696" y2="96.2" stroke="var(--rule)" stroke-width="1"/><line x1="62" y1="33.6" x2="696" y2="33.6" stroke="var(--rule)" stroke-width="1"/><text x="53" y="288.0" text-anchor="end" font-size="10.5" font-family="IBM Plex Mono, monospace" fill="var(--ink-faint)">0.2</text><text x="53" y="225.4" text-anchor="end" font-size="10.5" font-family="IBM Plex Mono, monospace" fill="var(--ink-faint)">0.4</text><text x="53" y="162.8" text-anchor="end" font-size="10.5" font-family="IBM Plex Mono, monospace" fill="var(--ink-faint)">0.6</text><text x="53" y="100.2" text-anchor="end" font-size="10.5" font-family="IBM Plex Mono, monospace" fill="var(--ink-faint)">0.8</text><text x="53" y="37.6" text-anchor="end" font-size="10.5" font-family="IBM Plex Mono, monospace" fill="var(--ink-faint)">1.0</text><text x="62.0" y="304" text-anchor="middle" font-size="10.5" font-family="IBM Plex Mono, monospace" fill="var(--ink-faint)">-1.0</text><text x="188.8" y="304" text-anchor="middle" font-size="10.5" font-family="IBM Plex Mono, monospace" fill="var(--ink-faint)">-0.6</text><text x="283.9" y="304" text-anchor="middle" font-size="10.5" font-family="IBM Plex Mono, monospace" fill="var(--ink-faint)">-0.3</text><text x="379.0" y="304" text-anchor="middle" font-size="10.5" font-family="IBM Plex Mono, monospace" fill="var(--ink-faint)">0</text><text x="474.1" y="304" text-anchor="middle" font-size="10.5" font-family="IBM Plex Mono, monospace" fill="var(--ink-faint)">+0.3</text><text x="569.2" y="304" text-anchor="middle" font-size="10.5" font-family="IBM Plex Mono, monospace" fill="var(--ink-faint)">+0.6</text><text x="696.0" y="304" text-anchor="middle" font-size="10.5" font-family="IBM Plex Mono, monospace" fill="var(--ink-faint)">+1.0</text><text x="379" y="324" text-anchor="middle" font-size="10.5" font-family="IBM Plex Mono, monospace" fill="var(--ink-faint)">steering strength</text><text x="14" y="151" text-anchor="middle" font-size="10.5" font-family="IBM Plex Mono, monospace" fill="var(--ink-faint)" transform="rotate(-90 14 151)">concept present</text><polyline points="62.0,257.1 188.8,247.1 283.9,240.1 379.0,224.7 474.1,194.4 569.2,126.7 696.0,48.0" fill="none" stroke="var(--flat)" stroke-width="2.4" stroke-linejoin="round" stroke-dasharray="5 4"/><circle cx="62.0" cy="257.1" r="3" fill="var(--flat)"/><circle cx="188.8" cy="247.1" r="3" fill="var(--flat)"/><circle cx="283.9" cy="240.1" r="3" fill="var(--flat)"/><circle cx="379.0" cy="224.7" r="3" fill="var(--flat)"/><circle cx="474.1" cy="194.4" r="3" fill="var(--flat)"/><circle cx="569.2" cy="126.7" r="3" fill="var(--flat)"/><circle cx="696.0" cy="48.0" r="3" fill="var(--flat)"/><polyline points="62.0,255.2 188.8,238.7 283.9,226.0 379.0,220.9 474.1,193.8 569.2,120.2 696.0,60.3" fill="none" stroke="var(--signal)" stroke-width="3" stroke-linejoin="round" /><circle cx="62.0" cy="255.2" r="3" fill="var(--signal)"/><circle cx="188.8" cy="238.7" r="3" fill="var(--signal)"/><circle cx="283.9" cy="226.0" r="3" fill="var(--signal)"/><circle cx="379.0" cy="220.9" r="3" fill="var(--signal)"/><circle cx="474.1" cy="193.8" r="3" fill="var(--signal)"/><circle cx="569.2" cy="120.2" r="3" fill="var(--signal)"/><circle cx="696.0" cy="60.3" r="3" fill="var(--signal)"/></svg>